{
	"asset":{
		"generator":"Khronos glTF Blender I/O v3.6.28",
		"version":"2.0"
	},
	"scene":0,
	"scenes":[
		{
			"name":"Scene",
			"nodes":[
				0
			]
		}
	],
	"nodes":[
		{
			"mesh":0,
			"name":"Plane-col",
			"rotation":[
				-0.03045186959207058,
				0.03183843195438385,
				0.029685519635677338,
				0.9985879063606262
			],
			"translation":[
				-4.902984619140625,
				4.977931976318359,
				10.076480865478516
			]
		}
	],
	"materials":[
		{
			"doubleSided":true,
			"name":"Material.001",
			"pbrMetallicRoughness":{
				"baseColorFactor":[
					0.800000011920929,
					0.800000011920929,
					0.800000011920929,
					1
				],
				"metallicFactor":0,
				"roughnessFactor":0.5
			}
		},
		{
			"doubleSided":true,
			"name":"Material.002",
			"pbrMetallicRoughness":{
				"baseColorFactor":[
					0.800000011920929,
					0.800000011920929,
					0.800000011920929,
					1
				],
				"metallicFactor":0,
				"roughnessFactor":0.5
			}
		}
	],
	"meshes":[
		{
			"name":"Plane",
			"primitives":[
				{
					"attributes":{
						"POSITION":0,
						"NORMAL":1,
						"TEXCOORD_0":2
					},
					"indices":3,
					"material":0
				},
				{
					"attributes":{
						"POSITION":4,
						"NORMAL":5,
						"TEXCOORD_0":6
					},
					"indices":7,
					"material":1
				}
			]
		}
	],
	"accessors":[
		{
			"bufferView":0,
			"componentType":5126,
			"count":72,
			"max":[
				30,
				5.933587074279785,
				30
			],
			"min":[
				-30,
				-1,
				-30
			],
			"type":"VEC3"
		},
		{
			"bufferView":1,
			"componentType":5126,
			"count":72,
			"type":"VEC3"
		},
		{
			"bufferView":2,
			"componentType":5126,
			"count":72,
			"type":"VEC2"
		},
		{
			"bufferView":3,
			"componentType":5123,
			"count":132,
			"type":"SCALAR"
		},
		{
			"bufferView":4,
			"componentType":5126,
			"count":1920,
			"max":[
				22.500001907348633,
				6,
				22.500001907348633
			],
			"min":[
				-22.500001907348633,
				-7.450580596923828e-07,
				-22.500001907348633
			],
			"type":"VEC3"
		},
		{
			"bufferView":5,
			"componentType":5126,
			"count":1920,
			"type":"VEC3"
		},
		{
			"bufferView":6,
			"componentType":5126,
			"count":1920,
			"type":"VEC2"
		},
		{
			"bufferView":7,
			"componentType":5123,
			"count":3636,
			"type":"SCALAR"
		}
	],
	"bufferViews":[
		{
			"buffer":0,
			"byteLength":864,
			"byteOffset":0,
			"target":34962
		},
		{
			"buffer":0,
			"byteLength":864,
			"byteOffset":864,
			"target":34962
		},
		{
			"buffer":0,
			"byteLength":576,
			"byteOffset":1728,
			"target":34962
		},
		{
			"buffer":0,
			"byteLength":264,
			"byteOffset":2304,
			"target":34963
		},
		{
			"buffer":0,
			"byteLength":23040,
			"byteOffset":2568,
			"target":34962
		},
		{
			"buffer":0,
			"byteLength":23040,
			"byteOffset":25608,
			"target":34962
		},
		{
			"buffer":0,
			"byteLength":15360,
			"byteOffset":48648,
			"target":34962
		},
		{
			"buffer":0,
			"byteLength":7272,
			"byteOffset":64008,
			"target":34963
		}
	],
	"buffers":[
		{
			"byteLength":71280,
			"uri":"data:application/octet-stream;base64,"
		}
	]
}
